<svg xmlns:xlink="http://www.w3.org/1999/xlink" xmlns="http://www.w3.org/2000/svg" width="241" height="42" fill="currentColor"><defs><symbol id="logo" fill="currentColor" xmlns="http://www.w3.org/2000/svg" viewBox="0 0 241.58 42.03">
<path d="M.68.54C.22.54 0 .63 0 1s.68.34 1.31.55a2 2 0 0 1 1.29 2v14.32c0 1.35-.08 2.23-1.06 2.69-.72.34-1.54.15-1.54.65 0 .34.22.37.68.37h9.06c3.14 0 5.57-.33 7.58-1.62a9.9 9.9 0 0 0 4.44-8.6 10.18 10.18 0 0 0-6.18-9.8 18.72 18.72 0 0 0-7.11-1ZM7.17 16.4v-15c.76 0 1.45-.1 2.12-.1 4.94 0 7.37 3.56 7.37 10.78 0 5.83-2.14 8.79-6.29 8.79-2.9 0-3.19-1.58-3.19-4.49ZM35.28.13c-6.75 0-11.6 4.62-11.6 10.94a10.55 10.55 0 0 0 4.42 8.74A11.84 11.84 0 0 0 35.28 22c6.71 0 11.57-4.65 11.57-11S42 .13 35.28.13Zm0 .66c4 0 6.39 3.5 6.39 10.28s-2.3 10.27-6.39 10.27-6.42-3.5-6.42-10.27S31.2.79 35.28.79Zm10-.25c-.44 0-.65.09-.65.34 0 .72 1.63 0 3.16 1.57l1.3 1.3-.08 10.93c0 3.16-.44 5-2.31 5.84-.9.41-1.89.26-1.89.75 0 .23.2.31.58.31h8.14c.4 0 .59-.06.59-.31 0-.53-1.05-.34-2-.78-1.79-.84-2.12-2.62-2.12-5.81V4.32l15.66 17.55A.48.48 0 0 0 66 22c.16 0 .26-.16.26-.38L66.34 7c0-2.91.59-4.62 2.29-5.37.86-.4 1.7-.31 1.7-.76 0-.17-.17-.3-.55-.3h-8c-.35 0-.54.13-.54.3 0 .47.83.36 1.81.76 1.9.77 2.5 2.43 2.5 5.34v8.16L52.69.54Zm26 0c-.43 0-.65.09-.65.34 0 .72 1.63 0 3.16 1.57l1.3 1.3L75 14.68c0 3.16-.43 5-2.31 5.84-.91.41-1.88.26-1.88.75 0 .23.16.31.57.31h8.15c.4 0 .59-.06.59-.31 0-.53-1-.34-2-.78-1.85-.84-2.22-2.62-2.22-5.81V4.32l15.73 17.55A.4.4 0 0 0 92 22c.15 0 .26-.16.26-.38L92.31 7c0-2.91.58-4.62 2.28-5.37.87-.4 1.7-.31 1.7-.76 0-.17-.19-.3-.54-.3h-8c-.37 0-.56.13-.56.3 0 .47.85.36 1.82.76 1.89.77 2.5 2.43 2.5 5.34v8.16L78.65.54Zm34.51 1.1c-.29-.63-.44-1-.75-1s-.45.52-1.2 1.47c-1.14 1.43-2.17 1.76-2.17 2 0 .43.82.37 1.08 1.11l-4.05 9.93c-1.2 2.92-2.43 4.62-4.41 5.52-.62.27-1.1.33-1.1.66s.16.26.5.26H101c.35 0 .5-.09.5-.33s-.66-.35-1.25-.59a2.61 2.61 0 0 1-1.52-2.54 4.86 4.86 0 0 1 .35-1.81l.76-2h6.85l1.76 4.38a2.88 2.88 0 0 1 .28 1.08c0 1.4-2.26.8-2.26 1.51 0 .24.22.3.57.3h8.36c.35 0 .53-.09.53-.3 0-.38-.56-.41-1.16-.58a3 3 0 0 1-1.69-1.92Zm-2.57 4.22 3.17 7.81h-6.32ZM118.65.54c-.46 0-.68.09-.68.41s.68.34 1.31.55a2 2 0 0 1 1.3 2v14.37c0 1.35-.07 2.23-1.06 2.69-.72.34-1.55.15-1.55.65 0 .34.23.37.68.37h8.93c.36 0 .57-.08.57-.33 0-.63-1.36-.29-2.15-.75s-.85-1.35-.85-2.6v-7h.3a4.76 4.76 0 0 1 4.45 2.84c.62 1.41.29 2.4.88 2.4.2 0 .32-.16.32-.43V5.82a.34.34 0 0 0-.31-.38c-.53 0-.26 1-.85 2.36a4.73 4.73 0 0 1-4.38 2.46h-.4v-9h.66c4.09 0 6.86 1.28 8.63 4.06 1 1.59 1.19 2.53 1.61 2.53a.35.35 0 0 0 .34-.36v-.24L134.14.54Zm19.35 0c-.48 0-.72.09-.72.41s.72.34 1.37.55a2 2 0 0 1 1.32 2v12c0 4.24 3.56 6.54 9.48 6.54 5.26 0 8.16-2.5 8.16-7.38V6.72c0-2.65.55-4.34 2.07-5.06.84-.39 1.84-.18 1.84-.71 0-.32-.24-.41-.72-.41h-7.1c-.49 0-.72.09-.72.41 0 .53 1 .32 1.87.71 1.47.72 2 2.41 2 5.06v7.68c0 4.45-2.08 6.67-6.36 6.67-3.26 0-5.53-2-5.53-5.28V4.29c0-1.35 0-2.19 1.07-2.69.75-.37 1.62-.15 1.62-.65 0-.32-.21-.41-.69-.41Zm37 11.21c-.28 0-.46.16-.46.35 0 .5.93.24 1.82.71s1.11 1.37 1.11 3.13c0 3.59-1.58 5.37-5 5.37-4.11 0-6.56-3.4-6.56-9.77 0-7 2.38-10.72 6.59-10.72 2.8 0 5.14 1.65 6.76 4.77 1.12 2.22.92 3.54 1.48 3.54.26 0 .36-.22.36-.66 0-.06 0-2.61-.13-7.62 0-.4-.09-.59-.39-.59-.63 0-.17 1.47-1.36 1.47-1 0-3.25-1.6-6.71-1.6-6.7 0-11.73 4.72-11.73 11.21 0 6.15 5 10.69 11.56 10.69a13.27 13.27 0 0 0 7.24-2.09l1 1.65H182l.06-7.33a1.5 1.5 0 0 1 1.09-1.63c.65-.22 1.28 0 1.28-.53 0-.19-.17-.35-.52-.35Zm20.44-10.11c-.29-.63-.45-1-.76-1s-.44.52-1.2 1.47c-1.12 1.43-2.16 1.76-2.16 2 0 .43.82.37 1.06 1.11l-4 9.87c-1.19 2.92-2.43 4.62-4.4 5.52-.62.27-1.11.33-1.11.66s.17.26.51.26h7.3c.34 0 .49-.09.49-.33s-.67-.35-1.25-.59a2.6 2.6 0 0 1-1.5-2.54 5.09 5.09 0 0 1 .33-1.81l.76-2h6.86l1.76 4.38a3.08 3.08 0 0 1 .28 1.08c0 1.4-2.27.8-2.27 1.51 0 .24.23.3.57.3H205c.35 0 .55-.09.55-.3 0-.38-.57-.41-1.16-.58a3.06 3.06 0 0 1-1.7-1.92Zm-2.59 4.22 3.15 7.81h-6.32Zm13.3-5.32C204.91.54 205 0 204.64 0a.3.3 0 0 0-.27.23l-1.92 7.21v.1a.3.3 0 0 0 .28.3c.53 0 .47-1 1.47-2.53a9.39 9.39 0 0 1 6.35-4.09V17.9c0 1.38-.1 2.25-1 2.65s-2.13.07-2.13.69c0 .28.21.34.6.34h10c.39 0 .59-.09.59-.34 0-.66-1.39-.25-2.31-.78s-.88-1.29-.88-2.56V1.23a9.36 9.36 0 0 1 6.35 4.08c1 1.47.94 2.53 1.48 2.53a.29.29 0 0 0 .3-.28v-.12l-1.74-7.2c0-.17-.1-.24-.24-.24s-.33.54-1.58.54Zm25.27 1.1c-.29-.63-.43-1-.75-1s-.43.52-1.2 1.47c-1.13 1.43-2.16 1.76-2.16 2 0 .43.81.37 1.07 1.11l-4.06 9.87c-1.18 2.92-2.42 4.62-4.4 5.52-.62.27-1.1.33-1.1.66s.16.26.5.26h7.29c.35 0 .51-.09.51-.33s-.67-.35-1.26-.59a2.63 2.63 0 0 1-1.5-2.54 5.06 5.06 0 0 1 .34-1.81l.75-2h6.86l1.76 4.38a2.71 2.71 0 0 1 .29 1.08c0 1.4-2.28.8-2.28 1.51 0 .24.23.3.58.3H241c.35 0 .54-.09.54-.3 0-.38-.57-.41-1.17-.58a3.06 3.06 0 0 1-1.7-1.92Zm-2.57 4.22 3.15 7.81h-6.3ZM237 2.64a2.21 2.21 0 0 0-.72 1.65A2.24 2.24 0 0 0 237 6a2.47 2.47 0 0 0 1.75.68 2.41 2.41 0 0 0 1.71-.68 2.3 2.3 0 0 0 .06-3.25l-.06-.07a2.58 2.58 0 0 0-3.46-.04Zm3.77 3.58a2.91 2.91 0 0 1-2 .8 2.79 2.79 0 0 1-2-.8 2.64 2.64 0 0 1-.09-3.74l.1-.1a2.86 2.86 0 0 1 2-.79 2.9 2.9 0 0 1 2 .79 2.63 2.63 0 0 1 .11 3.72Zm-1.49-3a1.71 1.71 0 0 0-.67-.1h-.48v1.12h.5a1.58 1.58 0 0 0 .53-.07.43.43 0 0 0 .32-.46.49.49 0 0 0-.2-.45Zm-.6-.46a2.29 2.29 0 0 1 .86.11.74.74 0 0 1 .48.75.61.61 0 0 1-.31.58 1.2 1.2 0 0 1-.45.15.78.78 0 0 1 .72.76v.43a1 1 0 0 0 0 .16h-.53v-.31a.74.74 0 0 0-.29-.7 1.86 1.86 0 0 0-.61-.1h-.45v1.18h-.56v-3Zm-186.8 38.9V29.89h-3.54v-1.1h8.26v1.1h-3.55v11.77ZM65.36 41a5.66 5.66 0 0 0 4-1.66 5.64 5.64 0 0 0 1.65-4 5.65 5.65 0 0 0-.42-2.19 5.54 5.54 0 0 0-1.23-1.86A5.42 5.42 0 0 0 67.53 30a5.59 5.59 0 0 0-2.17-.42 5.37 5.37 0 0 0-2.16.42 5.78 5.78 0 0 0-1.83 1.23 5.86 5.86 0 0 0-1.23 1.86 5.65 5.65 0 0 0-.42 2.19 5.69 5.69 0 0 0 1.65 4 5.55 5.55 0 0 0 1.82 1.24 5.7 5.7 0 0 0 2.17.48Zm6.9-5.7a6.5 6.5 0 0 1-.52 2.58 6.63 6.63 0 0 1-1.5 2.12A6.78 6.78 0 0 1 68 41.49a7.06 7.06 0 0 1-5.27 0A6.92 6.92 0 0 1 60.5 40a6.73 6.73 0 0 1-1.5-2.17 6.57 6.57 0 0 1-.52-2.58 6.68 6.68 0 0 1 .52-2.61 6.88 6.88 0 0 1 1.5-2.2A6.53 6.53 0 0 1 62.71 29a7 7 0 0 1 2.65-.49A7.36 7.36 0 0 1 68 29a6.53 6.53 0 0 1 2.21 1.45 6.67 6.67 0 0 1 1.5 2.2 6.45 6.45 0 0 1 .51 2.6Zm3.07-6.46h1.15v8.4a4 4 0 0 0 .87 2.76 4.24 4.24 0 0 0 5.3 0 4 4 0 0 0 .87-2.83V28.8h1.16v8a5.64 5.64 0 0 1-1.16 3.9A4.49 4.49 0 0 1 80 42a4.54 4.54 0 0 1-3.53-1.29 5.69 5.69 0 0 1-1.16-3.9Zm14.21 1v4.75h1.18A3.72 3.72 0 0 0 93 34a2.19 2.19 0 0 0 .65-1.78 2.37 2.37 0 0 0-.65-1.85 3.55 3.55 0 0 0-2.26-.56Zm6.64 11.84h-1.42l-4.52-6.14h-.7v6.14h-1.17V28.79h2.36a4.8 4.8 0 0 1 3.14.87 3.23 3.23 0 0 1 1 2.64 3.15 3.15 0 0 1-.87 2.36 3.41 3.41 0 0 1-2.46.86ZM110.4 39l-3.4-4.09-.58.41a6.84 6.84 0 0 0-1.67 1.55 2.74 2.74 0 0 0 .42 3.3 2.63 2.63 0 0 0 1.93.79 3.12 3.12 0 0 0 1.57-.49A7.64 7.64 0 0 0 110.4 39Zm-3-5.33.57-.4a3.56 3.56 0 0 0 1-1 2 2 0 0 0 .34-1.08 1.4 1.4 0 0 0-.46-1.05 1.63 1.63 0 0 0-1.13-.43 1.78 1.78 0 0 0-1.2.42 1.36 1.36 0 0 0-.46 1.06 1.84 1.84 0 0 0 .16.73 3.55 3.55 0 0 0 .43.76Zm5.22 8-1.62-1.9a7 7 0 0 1-1.88 1.6 4.31 4.31 0 0 1-2.05.52 3.81 3.81 0 0 1-2.72-1 3.52 3.52 0 0 1-.31-4.69 9.18 9.18 0 0 1 2.44-2l-.48-.7a6.23 6.23 0 0 1-.8-1.3 3 3 0 0 1-.2-1.06 2.06 2.06 0 0 1 .79-1.65 3.05 3.05 0 0 1 2-.65 2.51 2.51 0 0 1 1.83.67 2.2 2.2 0 0 1 .71 1.72 2.61 2.61 0 0 1-.55 1.61 6.91 6.91 0 0 1-1.78 1.53l3.18 3.92c.27-.34.54-.68.8-1s.5-.72.72-1.09l.76.44c-.29.47-.57.9-.86 1.31s-.58.79-.89 1.15l2.22 2.6Zm11.61 0V29.89h-3.54v-1.1h8.26v1.1h-3.55v11.77Zm8.73-5.36h4.48l-2.2-5.6Zm-3.29 5.36 5.66-13.38 5.41 13.38h-1.27l-1.67-4.37h-5.25l-1.71 4.36Zm12.07-2.17 1-.53a2.72 2.72 0 0 0 1 1.47 2.68 2.68 0 0 0 1.66.53 2.48 2.48 0 0 0 1.9-.72 2.77 2.77 0 0 0 .69-2 2.51 2.51 0 0 0-.46-1.55 6.21 6.21 0 0 0-2-1.42 9.16 9.16 0 0 1-2.59-1.81 2.86 2.86 0 0 1-.64-1.88 2.92 2.92 0 0 1 .93-2.24 3.46 3.46 0 0 1 2.4-.86 3.37 3.37 0 0 1 1.68.41 3.08 3.08 0 0 1 1.17 1.23l-.91.54a1.93 1.93 0 0 0-.8-.85 2.43 2.43 0 0 0-1.21-.29 2.09 2.09 0 0 0-1.51.56 2.06 2.06 0 0 0-.57 1.51c0 .9.75 1.74 2.24 2.52l.61.32a6.57 6.57 0 0 1 2.2 1.71 3.61 3.61 0 0 1 .55 2.09 3.82 3.82 0 0 1-5.92 3.14 4 4 0 0 1-1.44-1.89Zm12.77 2.17V29.89H151v-1.1h8.26v1.1h-3.55v11.77Zm7.2 0V28.79h1.17v12.87Zm4.92 0V28.24L175.72 39V28.79h1.09V42l-9.1-10.78v10.44ZM191.11 32a5.38 5.38 0 0 0-1.93-1.83 5.23 5.23 0 0 0-2.57-.63 5.1 5.1 0 0 0-3.9 1.62 6 6 0 0 0-1.5 4.19 6.18 6.18 0 0 0 .4 2.17 5.46 5.46 0 0 0 1.17 1.82 5.24 5.24 0 0 0 1.73 1.17 5.4 5.4 0 0 0 2.1.39 5 5 0 0 0 3.52-1.27 4.47 4.47 0 0 0 1.39-3.33h-4.44v-1h5.73v.14a6.7 6.7 0 0 1-1.68 4.82A6.13 6.13 0 0 1 186.5 42a6.32 6.32 0 0 1-4.74-1.86 6.74 6.74 0 0 1-1.76-4.89 7.57 7.57 0 0 1 .46-2.62 6.28 6.28 0 0 1 1.32-2.15 6 6 0 0 1 2.1-1.49 6.69 6.69 0 0 1 2.61-.49 7.36 7.36 0 0 1 3.36.71 4.91 4.91 0 0 1 2.15 2.08Z"></path>
</symbol></defs><use xlink:href="#logo" fill="#2F383B"></use></svg>